<mxfile host="app.diagrams.net" modified="2024-04-06T23:06:00.220Z" agent="Mozilla/5.0 (Windows NT 10.0; Win64; x64) AppleWebKit/537.36 (KHTML, like Gecko) Chrome/123.0.0.0 Safari/537.36" etag="Vh643UvWudNzFx0-8o62" version="24.2.2" type="device">
  <diagram name="Page-1" id="RVQ59szAOKyf82A_zsJQ">
    <mxGraphModel dx="2284" dy="1838" grid="1" gridSize="10" guides="1" tooltips="1" connect="1" arrows="1" fold="1" page="1" pageScale="1" pageWidth="850" pageHeight="1100" math="0" shadow="0">
      <root>
        <mxCell id="0" />
        <mxCell id="1" parent="0" />
        <mxCell id="07otT8sb6iXUbk8XBaNZ-1" value="" style="rounded=0;whiteSpace=wrap;html=1;" parent="1" vertex="1">
          <mxGeometry x="70" y="130" width="720" height="420" as="geometry" />
        </mxCell>
        <mxCell id="07otT8sb6iXUbk8XBaNZ-2" value="" style="rounded=0;whiteSpace=wrap;html=1;" parent="1" vertex="1">
          <mxGeometry x="70" y="130" width="720" height="80" as="geometry" />
        </mxCell>
        <mxCell id="07otT8sb6iXUbk8XBaNZ-3" value="" style="ellipse;whiteSpace=wrap;html=1;aspect=fixed;" parent="1" vertex="1">
          <mxGeometry x="90" y="140" width="110" height="110" as="geometry" />
        </mxCell>
        <mxCell id="07otT8sb6iXUbk8XBaNZ-4" value="" style="sketch=0;outlineConnect=0;fontColor=#232F3E;gradientColor=none;fillColor=#232F3D;strokeColor=none;dashed=0;verticalLabelPosition=bottom;verticalAlign=top;align=center;html=1;fontSize=12;fontStyle=0;aspect=fixed;pointerEvents=1;shape=mxgraph.aws4.user;direction=east;" parent="1" vertex="1">
          <mxGeometry x="113" y="163" width="64" height="64" as="geometry" />
        </mxCell>
        <mxCell id="07otT8sb6iXUbk8XBaNZ-6" value="&lt;font style=&quot;font-size: 35px;&quot;&gt;Elevate&lt;/font&gt;" style="text;html=1;align=left;verticalAlign=middle;whiteSpace=wrap;rounded=0;" parent="1" vertex="1">
          <mxGeometry x="210" y="160" width="360" height="45" as="geometry" />
        </mxCell>
        <mxCell id="07otT8sb6iXUbk8XBaNZ-7" value="" style="rounded=0;whiteSpace=wrap;html=1;" parent="1" vertex="1">
          <mxGeometry x="70" y="490" width="720" height="60" as="geometry" />
        </mxCell>
        <mxCell id="07otT8sb6iXUbk8XBaNZ-8" value="" style="html=1;verticalLabelPosition=bottom;labelBackgroundColor=#ffffff;verticalAlign=top;shadow=0;dashed=0;strokeWidth=2;shape=mxgraph.ios7.misc.scroll_(vertical);fillColor=#bac8d3;strokeColor=#23445d;" parent="1" vertex="1">
          <mxGeometry x="770" y="220" width="6" height="260" as="geometry" />
        </mxCell>
        <mxCell id="07otT8sb6iXUbk8XBaNZ-9" value="A response, from the chatbot&amp;nbsp;&amp;nbsp;" style="rounded=1;whiteSpace=wrap;html=1;align=left;" parent="1" vertex="1">
          <mxGeometry x="100" y="270" width="300" height="60" as="geometry" />
        </mxCell>
        <mxCell id="07otT8sb6iXUbk8XBaNZ-11" value="Elevate:" style="text;html=1;align=center;verticalAlign=middle;whiteSpace=wrap;rounded=0;" parent="1" vertex="1">
          <mxGeometry x="100" y="250" width="60" height="30" as="geometry" />
        </mxCell>
        <mxCell id="07otT8sb6iXUbk8XBaNZ-12" value="&lt;span style=&quot;&quot;&gt;A response, from the chatbot&amp;nbsp;&amp;nbsp;&lt;/span&gt;" style="rounded=1;whiteSpace=wrap;html=1;align=left;" parent="1" vertex="1">
          <mxGeometry x="100" y="410" width="300" height="60" as="geometry" />
        </mxCell>
        <mxCell id="07otT8sb6iXUbk8XBaNZ-13" value="Elevate:" style="text;html=1;align=center;verticalAlign=middle;whiteSpace=wrap;rounded=0;" parent="1" vertex="1">
          <mxGeometry x="100" y="380" width="60" height="30" as="geometry" />
        </mxCell>
        <mxCell id="07otT8sb6iXUbk8XBaNZ-14" value="&lt;span style=&quot;&quot;&gt;A question, from the user&lt;/span&gt;" style="rounded=1;whiteSpace=wrap;html=1;align=right;" parent="1" vertex="1">
          <mxGeometry x="460" y="340" width="295" height="60" as="geometry" />
        </mxCell>
        <mxCell id="07otT8sb6iXUbk8XBaNZ-15" value=":you" style="text;html=1;align=center;verticalAlign=middle;whiteSpace=wrap;rounded=0;" parent="1" vertex="1">
          <mxGeometry x="695" y="320" width="60" height="30" as="geometry" />
        </mxCell>
        <mxCell id="07otT8sb6iXUbk8XBaNZ-16" value="" style="rounded=1;whiteSpace=wrap;html=1;arcSize=50;" parent="1" vertex="1">
          <mxGeometry x="100" y="510" width="430" height="20" as="geometry" />
        </mxCell>
        <mxCell id="07otT8sb6iXUbk8XBaNZ-17" value="SEND" style="rounded=1;whiteSpace=wrap;html=1;arcSize=50;" parent="1" vertex="1">
          <mxGeometry x="550" y="510" width="90" height="20" as="geometry" />
        </mxCell>
        <mxCell id="07otT8sb6iXUbk8XBaNZ-18" value="" style="rounded=0;whiteSpace=wrap;html=1;" parent="1" vertex="1">
          <mxGeometry x="850" y="130" width="240" height="460" as="geometry" />
        </mxCell>
        <mxCell id="07otT8sb6iXUbk8XBaNZ-19" value="" style="rounded=0;whiteSpace=wrap;html=1;" parent="1" vertex="1">
          <mxGeometry x="850" y="130" width="240" height="80" as="geometry" />
        </mxCell>
        <mxCell id="07otT8sb6iXUbk8XBaNZ-20" value="" style="ellipse;whiteSpace=wrap;html=1;aspect=fixed;" parent="1" vertex="1">
          <mxGeometry x="870" y="155" width="80" height="80" as="geometry" />
        </mxCell>
        <mxCell id="07otT8sb6iXUbk8XBaNZ-21" value="" style="sketch=0;outlineConnect=0;fontColor=#232F3E;gradientColor=none;fillColor=#232F3D;strokeColor=none;dashed=0;verticalLabelPosition=bottom;verticalAlign=top;align=center;html=1;fontSize=12;fontStyle=0;aspect=fixed;pointerEvents=1;shape=mxgraph.aws4.user;direction=east;" parent="1" vertex="1">
          <mxGeometry x="890" y="175" width="37" height="37" as="geometry" />
        </mxCell>
        <mxCell id="07otT8sb6iXUbk8XBaNZ-22" value="&lt;font style=&quot;font-size: 26px;&quot;&gt;Elevate&lt;/font&gt;" style="text;html=1;align=left;verticalAlign=middle;whiteSpace=wrap;rounded=0;" parent="1" vertex="1">
          <mxGeometry x="960" y="163" width="360" height="45" as="geometry" />
        </mxCell>
        <mxCell id="07otT8sb6iXUbk8XBaNZ-23" value="" style="rounded=0;whiteSpace=wrap;html=1;" parent="1" vertex="1">
          <mxGeometry x="850" y="520" width="240" height="70" as="geometry" />
        </mxCell>
        <mxCell id="07otT8sb6iXUbk8XBaNZ-31" value="" style="rounded=1;whiteSpace=wrap;html=1;arcSize=50;" parent="1" vertex="1">
          <mxGeometry x="860" y="530" width="210" height="20" as="geometry" />
        </mxCell>
        <mxCell id="07otT8sb6iXUbk8XBaNZ-32" value="SEND" style="rounded=1;whiteSpace=wrap;html=1;arcSize=50;" parent="1" vertex="1">
          <mxGeometry x="863.5" y="560" width="90" height="20" as="geometry" />
        </mxCell>
        <mxCell id="07otT8sb6iXUbk8XBaNZ-34" value="A response, from the chatbot&amp;nbsp;&amp;nbsp;" style="rounded=1;whiteSpace=wrap;html=1;align=left;" parent="1" vertex="1">
          <mxGeometry x="870" y="255" width="180" height="60" as="geometry" />
        </mxCell>
        <mxCell id="07otT8sb6iXUbk8XBaNZ-35" value="Elevate:" style="text;html=1;align=center;verticalAlign=middle;whiteSpace=wrap;rounded=0;" parent="1" vertex="1">
          <mxGeometry x="870" y="235" width="60" height="30" as="geometry" />
        </mxCell>
        <mxCell id="07otT8sb6iXUbk8XBaNZ-36" value="&lt;span style=&quot;&quot;&gt;A question, from the user&lt;/span&gt;" style="rounded=1;whiteSpace=wrap;html=1;align=right;" parent="1" vertex="1">
          <mxGeometry x="895" y="340" width="175" height="60" as="geometry" />
        </mxCell>
        <mxCell id="07otT8sb6iXUbk8XBaNZ-37" value=":you" style="text;html=1;align=center;verticalAlign=middle;whiteSpace=wrap;rounded=0;" parent="1" vertex="1">
          <mxGeometry x="1010" y="315" width="65" height="35" as="geometry" />
        </mxCell>
        <mxCell id="07otT8sb6iXUbk8XBaNZ-38" value="A response, from the chatbot&amp;nbsp;&amp;nbsp;" style="rounded=1;whiteSpace=wrap;html=1;align=left;" parent="1" vertex="1">
          <mxGeometry x="863.5" y="420" width="180" height="60" as="geometry" />
        </mxCell>
        <mxCell id="07otT8sb6iXUbk8XBaNZ-39" value="Elevate:" style="text;html=1;align=center;verticalAlign=middle;whiteSpace=wrap;rounded=0;" parent="1" vertex="1">
          <mxGeometry x="863.5" y="400" width="60" height="30" as="geometry" />
        </mxCell>
        <mxCell id="07otT8sb6iXUbk8XBaNZ-40" value="" style="html=1;verticalLabelPosition=bottom;labelBackgroundColor=#ffffff;verticalAlign=top;shadow=0;dashed=0;strokeWidth=2;shape=mxgraph.ios7.misc.scroll_(vertical);fillColor=#bac8d3;strokeColor=#23445d;" parent="1" vertex="1">
          <mxGeometry x="1075" y="240" width="6" height="260" as="geometry" />
        </mxCell>
        <mxCell id="07otT8sb6iXUbk8XBaNZ-43" style="edgeStyle=orthogonalEdgeStyle;rounded=0;orthogonalLoop=1;jettySize=auto;html=1;strokeWidth=2;" parent="1" source="07otT8sb6iXUbk8XBaNZ-42" edge="1">
          <mxGeometry relative="1" as="geometry">
            <mxPoint x="595.3529411764707" y="539.0588235294117" as="targetPoint" />
          </mxGeometry>
        </mxCell>
        <mxCell id="07otT8sb6iXUbk8XBaNZ-44" style="edgeStyle=orthogonalEdgeStyle;rounded=0;orthogonalLoop=1;jettySize=auto;html=1;strokeWidth=2;" parent="1" source="07otT8sb6iXUbk8XBaNZ-42" edge="1">
          <mxGeometry relative="1" as="geometry">
            <mxPoint x="903.5882352941176" y="583.7647058823529" as="targetPoint" />
          </mxGeometry>
        </mxCell>
        <mxCell id="07otT8sb6iXUbk8XBaNZ-42" value="&lt;span style=&quot;font-size: 15px;&quot;&gt;Button to send question to chatbot&lt;/span&gt;" style="text;html=1;align=center;verticalAlign=middle;resizable=0;points=[];autosize=1;strokeColor=none;fillColor=none;" parent="1" vertex="1">
          <mxGeometry x="570" y="670" width="250" height="30" as="geometry" />
        </mxCell>
        <mxCell id="07otT8sb6iXUbk8XBaNZ-46" style="edgeStyle=orthogonalEdgeStyle;rounded=0;orthogonalLoop=1;jettySize=auto;html=1;strokeWidth=2;" parent="1" source="07otT8sb6iXUbk8XBaNZ-45" edge="1">
          <mxGeometry relative="1" as="geometry">
            <mxPoint x="284.1034482758621" y="534.4482758620691" as="targetPoint" />
          </mxGeometry>
        </mxCell>
        <mxCell id="07otT8sb6iXUbk8XBaNZ-47" style="edgeStyle=orthogonalEdgeStyle;rounded=0;orthogonalLoop=1;jettySize=auto;html=1;strokeWidth=2;" parent="1" source="07otT8sb6iXUbk8XBaNZ-45" edge="1">
          <mxGeometry relative="1" as="geometry">
            <mxPoint x="993.7586206896553" y="556.5172413793105" as="targetPoint" />
            <Array as="points">
              <mxPoint x="285" y="719" />
              <mxPoint x="994" y="719" />
            </Array>
          </mxGeometry>
        </mxCell>
        <mxCell id="07otT8sb6iXUbk8XBaNZ-45" value="&lt;span style=&quot;font-size: 15px;&quot;&gt;input box so user can type question&lt;/span&gt;" style="text;html=1;align=center;verticalAlign=middle;resizable=0;points=[];autosize=1;strokeColor=none;fillColor=none;" parent="1" vertex="1">
          <mxGeometry x="155" y="620" width="260" height="30" as="geometry" />
        </mxCell>
        <mxCell id="07otT8sb6iXUbk8XBaNZ-50" style="edgeStyle=orthogonalEdgeStyle;rounded=0;orthogonalLoop=1;jettySize=auto;html=1;strokeColor=default;strokeWidth=2;align=center;verticalAlign=middle;fontFamily=Helvetica;fontSize=12;fontColor=default;labelBackgroundColor=default;endArrow=classic;" parent="1" source="07otT8sb6iXUbk8XBaNZ-49" edge="1">
          <mxGeometry relative="1" as="geometry">
            <mxPoint x="98" y="440" as="targetPoint" />
          </mxGeometry>
        </mxCell>
        <mxCell id="07otT8sb6iXUbk8XBaNZ-54" style="edgeStyle=orthogonalEdgeStyle;rounded=0;orthogonalLoop=1;jettySize=auto;html=1;strokeColor=default;strokeWidth=2;align=center;verticalAlign=middle;fontFamily=Helvetica;fontSize=12;fontColor=default;labelBackgroundColor=default;endArrow=classic;" parent="1" source="07otT8sb6iXUbk8XBaNZ-49" edge="1">
          <mxGeometry relative="1" as="geometry">
            <mxPoint x="105.59999999999991" y="308.6" as="targetPoint" />
            <Array as="points">
              <mxPoint x="-120" y="309" />
            </Array>
          </mxGeometry>
        </mxCell>
        <mxCell id="07otT8sb6iXUbk8XBaNZ-49" value="&lt;span style=&quot;font-size: 15px;&quot;&gt;A chatbot message box&lt;br&gt;is used to store its responses.&lt;/span&gt;&lt;div&gt;&lt;span style=&quot;font-size: 15px;&quot;&gt;Has chatbots name on to identify who sent it&lt;br&gt;Possibly coloured in purple&amp;nbsp;&amp;nbsp;&lt;/span&gt;&lt;/div&gt;" style="text;html=1;align=center;verticalAlign=middle;resizable=0;points=[];autosize=1;strokeColor=none;fillColor=none;" parent="1" vertex="1">
          <mxGeometry x="-265" y="395" width="320" height="90" as="geometry" />
        </mxCell>
        <mxCell id="07otT8sb6iXUbk8XBaNZ-56" style="edgeStyle=orthogonalEdgeStyle;rounded=0;orthogonalLoop=1;jettySize=auto;html=1;strokeColor=default;strokeWidth=2;align=center;verticalAlign=middle;fontFamily=Helvetica;fontSize=12;fontColor=default;labelBackgroundColor=default;endArrow=classic;" parent="1" source="07otT8sb6iXUbk8XBaNZ-55" edge="1">
          <mxGeometry relative="1" as="geometry">
            <mxPoint x="875.9411764705883" y="267.2941176470588" as="targetPoint" />
            <Array as="points">
              <mxPoint x="825" y="184" />
              <mxPoint x="824" y="267" />
            </Array>
          </mxGeometry>
        </mxCell>
        <mxCell id="07otT8sb6iXUbk8XBaNZ-55" value="&lt;span style=&quot;font-size: 15px;&quot;&gt;Chatbot message box, &lt;br&gt;used to store its responses.&lt;/span&gt;&lt;div&gt;&lt;span style=&quot;font-size: 15px;&quot;&gt;Has chatbots name on, to identify who sent it&lt;/span&gt;&lt;/div&gt;&lt;div&gt;&lt;span style=&quot;font-size: 15px; background-color: initial;&quot;&gt;Possibly coloured in purple&lt;/span&gt;&lt;span style=&quot;font-size: 15px;&quot;&gt;&amp;nbsp;&lt;/span&gt;&lt;/div&gt;" style="text;html=1;align=center;verticalAlign=middle;resizable=0;points=[];autosize=1;strokeColor=none;fillColor=none;" parent="1" vertex="1">
          <mxGeometry x="665" y="20" width="320" height="90" as="geometry" />
        </mxCell>
        <mxCell id="07otT8sb6iXUbk8XBaNZ-58" style="edgeStyle=orthogonalEdgeStyle;rounded=0;orthogonalLoop=1;jettySize=auto;html=1;strokeColor=default;strokeWidth=2;align=center;verticalAlign=middle;fontFamily=Helvetica;fontSize=12;fontColor=default;labelBackgroundColor=default;endArrow=classic;" parent="1" source="07otT8sb6iXUbk8XBaNZ-57" edge="1">
          <mxGeometry relative="1" as="geometry">
            <mxPoint x="1075.9411764705883" y="375.52941176470586" as="targetPoint" />
          </mxGeometry>
        </mxCell>
        <mxCell id="07otT8sb6iXUbk8XBaNZ-57" value="&lt;span style=&quot;font-size: 15px;&quot;&gt;A messaging bot used store uses messages&lt;/span&gt;&lt;div&gt;&lt;span style=&quot;font-size: 15px;&quot;&gt;&amp;nbsp;and has a user&#39;s name to identify it&amp;nbsp;&lt;/span&gt;&lt;/div&gt;" style="text;html=1;align=center;verticalAlign=middle;resizable=0;points=[];autosize=1;strokeColor=none;fillColor=none;" parent="1" vertex="1">
          <mxGeometry x="1135" y="350" width="320" height="50" as="geometry" />
        </mxCell>
        <mxCell id="07otT8sb6iXUbk8XBaNZ-60" style="edgeStyle=orthogonalEdgeStyle;rounded=0;orthogonalLoop=1;jettySize=auto;html=1;strokeColor=default;strokeWidth=2;align=center;verticalAlign=middle;fontFamily=Helvetica;fontSize=12;fontColor=default;labelBackgroundColor=default;endArrow=classic;" parent="1" source="07otT8sb6iXUbk8XBaNZ-59" edge="1">
          <mxGeometry relative="1" as="geometry">
            <mxPoint x="584.1764705882356" y="363.76470588235316" as="targetPoint" />
          </mxGeometry>
        </mxCell>
        <mxCell id="07otT8sb6iXUbk8XBaNZ-59" value="&lt;span style=&quot;font-size: 15px;&quot;&gt;A messaging bot used store uses messages&lt;/span&gt;&lt;div&gt;&lt;span style=&quot;font-size: 15px;&quot;&gt;&amp;nbsp;and has a user&#39;s name to identify it&amp;nbsp;&lt;/span&gt;&lt;/div&gt;" style="text;html=1;align=center;verticalAlign=middle;resizable=0;points=[];autosize=1;strokeColor=none;fillColor=none;" parent="1" vertex="1">
          <mxGeometry x="425" y="-40" width="320" height="50" as="geometry" />
        </mxCell>
        <mxCell id="07otT8sb6iXUbk8XBaNZ-62" style="edgeStyle=orthogonalEdgeStyle;rounded=0;orthogonalLoop=1;jettySize=auto;html=1;strokeColor=default;strokeWidth=2;align=center;verticalAlign=middle;fontFamily=Helvetica;fontSize=12;fontColor=default;labelBackgroundColor=default;endArrow=classic;" parent="1" source="07otT8sb6iXUbk8XBaNZ-61" edge="1">
          <mxGeometry relative="1" as="geometry">
            <mxPoint x="1091.8000000000002" y="540.4000000000001" as="targetPoint" />
          </mxGeometry>
        </mxCell>
        <mxCell id="07otT8sb6iXUbk8XBaNZ-61" value="&lt;span style=&quot;font-size: 15px;&quot;&gt;buttons/ inputs stack on smaller screens&lt;/span&gt;" style="text;html=1;align=center;verticalAlign=middle;resizable=0;points=[];autosize=1;strokeColor=none;fillColor=none;" parent="1" vertex="1">
          <mxGeometry x="1275" y="525" width="290" height="30" as="geometry" />
        </mxCell>
        <mxCell id="07otT8sb6iXUbk8XBaNZ-64" style="edgeStyle=orthogonalEdgeStyle;rounded=0;orthogonalLoop=1;jettySize=auto;html=1;strokeColor=default;strokeWidth=2;align=center;verticalAlign=middle;fontFamily=Helvetica;fontSize=12;fontColor=default;labelBackgroundColor=default;endArrow=classic;" parent="1" source="07otT8sb6iXUbk8XBaNZ-63" edge="1">
          <mxGeometry relative="1" as="geometry">
            <mxPoint x="1093.4" y="450" as="targetPoint" />
          </mxGeometry>
        </mxCell>
        <mxCell id="07otT8sb6iXUbk8XBaNZ-65" style="edgeStyle=orthogonalEdgeStyle;rounded=0;orthogonalLoop=1;jettySize=auto;html=1;strokeColor=default;strokeWidth=2;align=center;verticalAlign=middle;fontFamily=Helvetica;fontSize=12;fontColor=default;labelBackgroundColor=default;endArrow=classic;" parent="1" source="07otT8sb6iXUbk8XBaNZ-63" edge="1">
          <mxGeometry relative="1" as="geometry">
            <mxPoint x="784.5999999999999" y="450.8000000000002" as="targetPoint" />
            <Array as="points">
              <mxPoint x="1275" y="499" />
              <mxPoint x="785" y="499" />
            </Array>
          </mxGeometry>
        </mxCell>
        <mxCell id="07otT8sb6iXUbk8XBaNZ-63" value="&lt;span style=&quot;font-size: 15px;&quot;&gt;Scroll bar to see new/order messages&amp;nbsp;&lt;/span&gt;" style="text;html=1;align=center;verticalAlign=middle;resizable=0;points=[];autosize=1;strokeColor=none;fillColor=none;" parent="1" vertex="1">
          <mxGeometry x="1135" y="435" width="280" height="30" as="geometry" />
        </mxCell>
        <mxCell id="07otT8sb6iXUbk8XBaNZ-70" style="edgeStyle=orthogonalEdgeStyle;rounded=0;orthogonalLoop=1;jettySize=auto;html=1;strokeColor=default;strokeWidth=2;align=center;verticalAlign=middle;fontFamily=Helvetica;fontSize=12;fontColor=default;labelBackgroundColor=default;endArrow=classic;" parent="1" source="07otT8sb6iXUbk8XBaNZ-66" edge="1">
          <mxGeometry relative="1" as="geometry">
            <mxPoint x="144.1764705882356" y="156.70588235294144" as="targetPoint" />
          </mxGeometry>
        </mxCell>
        <mxCell id="07otT8sb6iXUbk8XBaNZ-66" value="&lt;span style=&quot;font-size: 15px;&quot;&gt;Chatbots name and icon&lt;/span&gt;" style="text;html=1;align=center;verticalAlign=middle;resizable=0;points=[];autosize=1;strokeColor=none;fillColor=none;" parent="1" vertex="1">
          <mxGeometry x="50" y="10" width="190" height="30" as="geometry" />
        </mxCell>
        <mxCell id="07otT8sb6iXUbk8XBaNZ-69" style="edgeStyle=orthogonalEdgeStyle;rounded=0;orthogonalLoop=1;jettySize=auto;html=1;strokeColor=default;strokeWidth=2;align=center;verticalAlign=middle;fontFamily=Helvetica;fontSize=12;fontColor=default;labelBackgroundColor=default;endArrow=classic;" parent="1" source="07otT8sb6iXUbk8XBaNZ-68" edge="1">
          <mxGeometry relative="1" as="geometry">
            <mxPoint x="975.3333333333335" y="154.66666666666652" as="targetPoint" />
            <Array as="points">
              <mxPoint x="1137" y="155" />
            </Array>
          </mxGeometry>
        </mxCell>
        <mxCell id="07otT8sb6iXUbk8XBaNZ-68" value="&lt;span style=&quot;font-size: 15px;&quot;&gt;Chatbots name and icon&lt;/span&gt;" style="text;html=1;align=center;verticalAlign=middle;resizable=0;points=[];autosize=1;strokeColor=none;fillColor=none;" parent="1" vertex="1">
          <mxGeometry x="1050" y="40" width="190" height="30" as="geometry" />
        </mxCell>
        <mxCell id="oX64QAJfywEpNViciBoF-1" value="&lt;font style=&quot;font-size: 20px;&quot;&gt;&lt;b&gt;Large Chatbot not using jQuery&amp;nbsp;&lt;/b&gt;&lt;/font&gt;" style="text;html=1;align=center;verticalAlign=middle;resizable=0;points=[];autosize=1;strokeColor=none;fillColor=none;" vertex="1" parent="1">
          <mxGeometry x="530" y="-100" width="330" height="40" as="geometry" />
        </mxCell>
      </root>
    </mxGraphModel>
  </diagram>
</mxfile>
